# xmcd CD database file
#
# Track frame offsets:
#	150
#	45273
#	84839
#	119943
#	142347
#	172916
#	207972
#	238098
#
# Disc length: 3510 seconds
#
# Revision: 0
# Processed by: cddbd v1.5.2PL0 Copyright (c) Steve Scherf et al.
# Submitted via: CDex 1.51
#
DISCID=6d0db408
DTITLE=Keith Jarrett, Gary Peacock and Jack DeJohnette - After The Fall [Disc 2]
DYEAR=2018
DGENRE=Jazz
TTITLE0=Bouncin' With Bud
TTITLE1=Doxy
TTITLE2=I'll See You Again
TTITLE3=Late Lament
TTITLE4=One For Majid
TTITLE5=Santa Claus Is Coming To Town
TTITLE6=Moment's Notice
TTITLE7=When I Fall In Love
EXTD=YEAR: 2018
EXTT0=
EXTT1=
EXTT2=
EXTT3=
EXTT4=
EXTT5=
EXTT6=
EXTT7=
PLAYORDER=
